# This file uses centimeters as units for non-parametric coordinates.

mtllib barrel.mtl
g default
v -0.025981 0.115000 0.000000
v -0.015000 0.125981 0.000000
v 0.000000 0.130000 0.000000
v 0.015000 0.125981 0.000000
v 0.025981 0.115000 0.000000
v 0.030000 0.100000 0.000000
v 0.025981 0.085000 0.000000
v 0.015000 0.074019 0.000000
v 0.000000 0.070000 0.000000
v -0.015000 0.074019 0.000000
v -0.025981 0.085000 0.000000
v -0.030000 0.100000 0.000000
v -0.025981 0.115000 -1.000000
v -0.015000 0.125981 -1.000000
v 0.000000 0.130000 -1.000000
v 0.015000 0.125981 -1.000000
v 0.025981 0.115000 -1.000000
v 0.030000 0.100000 -1.000000
v 0.025981 0.085000 -1.000000
v 0.015000 0.074019 -1.000000
v 0.000000 0.070000 -1.000000
v -0.015000 0.074019 -1.000000
v -0.025981 0.085000 -1.000000
v -0.030000 0.100000 -1.000000
v 0.000000 0.100000 0.000000
v 0.000000 0.100000 -1.000000
v 0.038366 0.077850 -0.989416
v 0.044301 0.100000 -0.989416
v 0.038366 0.122150 -0.989416
v 0.022150 0.138366 -0.989416
v 0.000000 0.144301 -0.989416
v -0.022150 0.138366 -0.989416
v -0.038366 0.122150 -0.989416
v -0.044301 0.100000 -0.989416
v -0.038366 0.077850 -0.989416
v -0.022150 0.061634 -0.989416
v 0.000000 0.055699 -0.989416
v 0.022150 0.061634 -0.989416
v -0.038366 0.122150 -0.781905
v -0.044301 0.100000 -0.781905
v -0.038366 0.077850 -0.781905
v -0.022150 0.061634 -0.781905
v 0.000000 0.055699 -0.781905
v 0.022150 0.061634 -0.781905
v 0.038366 0.077850 -0.781905
v 0.044301 0.100000 -0.781905
v 0.038366 0.122150 -0.781905
v 0.022150 0.138366 -0.781905
v 0.000000 0.144301 -0.781905
v -0.022150 0.138366 -0.781905
v -0.025981 0.115000 -0.754931
v -0.030000 0.100000 -0.754931
v -0.025981 0.085000 -0.754931
v -0.015000 0.074019 -0.754931
v 0.000000 0.070000 -0.754931
v 0.015000 0.074019 -0.754931
v 0.025981 0.085000 -0.754931
v 0.030000 0.100000 -0.754931
v 0.025981 0.115000 -0.754931
v 0.015000 0.125981 -0.754931
v 0.000000 0.130000 -0.754931
v -0.015000 0.125981 -0.754931
vt 0.635316 0.078125
vt 0.578125 0.020934
vt 0.500000 0.000000
vt 0.421875 0.020934
vt 0.364684 0.078125
vt 0.343750 0.156250
vt 0.364684 0.234375
vt 0.421875 0.291566
vt 0.500000 0.312500
vt 0.578125 0.291566
vt 0.635316 0.234375
vt 0.656250 0.156250
vt 0.375000 0.312500
vt 0.395833 0.312500
vt 0.416667 0.312500
vt 0.437500 0.312500
vt 0.458333 0.312500
vt 0.479167 0.312500
vt 0.500000 0.312500
vt 0.520833 0.312500
vt 0.541667 0.312500
vt 0.562500 0.312500
vt 0.583333 0.312500
vt 0.604167 0.312500
vt 0.625000 0.312500
vt 0.375000 0.688440
vt 0.395833 0.688440
vt 0.416667 0.688440
vt 0.437500 0.688440
vt 0.458333 0.688440
vt 0.479167 0.688440
vt 0.500000 0.688440
vt 0.520833 0.688440
vt 0.541667 0.688440
vt 0.562500 0.688440
vt 0.583333 0.688440
vt 0.604167 0.688440
vt 0.625000 0.688440
vt 0.635316 0.765625
vt 0.578125 0.708434
vt 0.500000 0.687500
vt 0.421875 0.708434
vt 0.364684 0.765625
vt 0.343750 0.843750
vt 0.364684 0.921875
vt 0.421875 0.979066
vt 0.500000 1.000000
vt 0.578125 0.979066
vt 0.635316 0.921875
vt 0.656250 0.843750
vt 0.500000 0.150000
vt 0.500000 0.837500
vt 0.500000 0.681567
vt 0.479167 0.681567
vt 0.458333 0.681567
vt 0.437500 0.681567
vt 0.416667 0.681567
vt 0.395833 0.681567
vt 0.625000 0.681567
vt 0.375000 0.681567
vt 0.604167 0.681567
vt 0.583333 0.681567
vt 0.562500 0.681567
vt 0.541667 0.681567
vt 0.520833 0.681567
vt 0.625000 0.628739
vt 0.375000 0.628739
vt 0.604167 0.628739
vt 0.583333 0.628739
vt 0.562500 0.628739
vt 0.541667 0.628739
vt 0.520833 0.628739
vt 0.500000 0.628739
vt 0.479167 0.628739
vt 0.458333 0.628739
vt 0.437500 0.628739
vt 0.416667 0.628739
vt 0.395833 0.628739
vt 0.625000 0.606007
vt 0.375000 0.606007
vt 0.604167 0.606007
vt 0.583333 0.606007
vt 0.562500 0.606007
vt 0.541667 0.606007
vt 0.520833 0.606007
vt 0.500000 0.606007
vt 0.479167 0.606007
vt 0.458333 0.606007
vt 0.437500 0.606007
vt 0.416667 0.606007
vt 0.395833 0.606007
vn -0.707107 0.707107 0.000000
vn -0.707107 0.707107 0.000000
vn -0.698473 0.698472 0.155795
vn -0.671905 0.671905 0.311590
vn -0.258819 0.965926 0.000000
vn -0.258819 0.965926 0.000000
vn -0.255659 0.954131 0.155795
vn -0.245934 0.917839 0.311590
vn 0.258819 0.965926 0.000000
vn 0.258819 0.965926 0.000000
vn 0.255659 0.954131 0.155795
vn 0.245934 0.917839 0.311590
vn 0.707107 0.707107 0.000000
vn 0.707107 0.707107 0.000000
vn 0.698473 0.698473 0.155795
vn 0.671905 0.671905 0.311590
vn 0.965926 0.258819 0.000000
vn 0.965926 0.258819 0.000000
vn 0.954131 0.255659 0.155795
vn 0.917839 0.245934 0.311590
vn 0.965926 -0.258819 0.000000
vn 0.965926 -0.258819 0.000000
vn 0.954131 -0.255659 0.155795
vn 0.917839 -0.245934 0.311590
vn 0.707107 -0.707107 -0.000000
vn 0.707107 -0.707107 -0.000000
vn 0.698473 -0.698472 0.155795
vn 0.671905 -0.671905 0.311590
vn 0.258819 -0.965926 -0.000000
vn 0.258819 -0.965926 -0.000000
vn 0.255659 -0.954131 0.155795
vn 0.245934 -0.917839 0.311590
vn -0.258819 -0.965926 -0.000000
vn -0.258819 -0.965926 -0.000000
vn -0.255659 -0.954131 0.155795
vn -0.245934 -0.917839 0.311590
vn -0.707107 -0.707107 -0.000000
vn -0.707107 -0.707107 -0.000000
vn -0.698473 -0.698473 0.155795
vn -0.671905 -0.671905 0.311590
vn -0.965926 -0.258819 -0.000000
vn -0.965926 -0.258819 -0.000000
vn -0.954131 -0.255659 0.155795
vn -0.917839 -0.245934 0.311590
vn -0.965926 0.258819 -0.000000
vn -0.965926 0.258819 -0.000000
vn -0.954131 0.255659 0.155795
vn -0.917839 0.245934 0.311590
vn -0.000000 -0.000000 1.000000
vn -0.000000 -0.000000 1.000000
vn -0.000000 -0.000000 1.000000
vn -0.000000 -0.000000 1.000000
vn -0.000000 -0.000000 1.000000
vn -0.000000 -0.000000 1.000000
vn -0.000000 -0.000000 1.000000
vn -0.000000 -0.000000 1.000000
vn -0.000000 -0.000000 1.000000
vn -0.000000 -0.000000 1.000000
vn -0.000000 -0.000000 1.000000
vn -0.000000 -0.000000 1.000000
vn -0.000000 -0.000000 1.000000
vn 0.000000 0.000000 -1.000000
vn 0.000000 0.000000 -1.000000
vn 0.000000 0.000000 -1.000000
vn 0.000000 0.000000 -1.000000
vn 0.000000 0.000000 -1.000000
vn 0.000000 0.000000 -1.000000
vn 0.000000 0.000000 -1.000000
vn 0.000000 0.000000 -1.000000
vn 0.000000 0.000000 -1.000000
vn 0.000000 0.000000 -1.000000
vn 0.000000 0.000000 -1.000000
vn 0.000000 0.000000 -1.000000
vn 0.000000 0.000000 -1.000000
vn 0.924078 -0.247605 -0.291154
vn 0.785267 -0.210412 -0.582308
vn 0.587481 -0.157416 -0.793779
vn 0.587481 -0.157417 -0.793779
vn 0.924078 0.247606 -0.291154
vn 0.785267 0.210412 -0.582308
vn 0.587482 0.157415 -0.793779
vn 0.587482 0.157414 -0.793779
vn 0.676473 0.676471 -0.291155
vn 0.574855 0.574855 -0.582308
vn 0.430066 0.430067 -0.793779
vn 0.430065 0.430070 -0.793778
vn 0.247606 0.924078 -0.291154
vn 0.210412 0.785266 -0.582309
vn 0.157415 0.587480 -0.793781
vn 0.157415 0.587479 -0.793781
vn -0.247606 0.924078 -0.291155
vn -0.210411 0.785266 -0.582309
vn -0.157415 0.587481 -0.793780
vn -0.157415 0.587481 -0.793780
vn -0.676472 0.676472 -0.291154
vn -0.574855 0.574855 -0.582308
vn -0.430066 0.430067 -0.793779
vn -0.430066 0.430067 -0.793779
vn -0.924078 0.247605 -0.291154
vn -0.785267 0.210412 -0.582308
vn -0.587481 0.157416 -0.793779
vn -0.587481 0.157417 -0.793779
vn -0.924078 -0.247606 -0.291154
vn -0.785267 -0.210412 -0.582308
vn -0.587482 -0.157415 -0.793779
vn -0.587482 -0.157414 -0.793779
vn -0.676473 -0.676471 -0.291155
vn -0.574855 -0.574855 -0.582308
vn -0.430066 -0.430067 -0.793779
vn -0.430065 -0.430070 -0.793778
vn -0.247606 -0.924078 -0.291154
vn -0.210412 -0.785266 -0.582309
vn -0.157415 -0.587480 -0.793781
vn -0.157415 -0.587479 -0.793781
vn 0.247606 -0.924078 -0.291155
vn 0.210411 -0.785266 -0.582309
vn 0.157415 -0.587481 -0.793780
vn 0.157415 -0.587481 -0.793780
vn 0.676472 -0.676472 -0.291154
vn 0.574855 -0.574855 -0.582308
vn 0.430066 -0.430067 -0.793779
vn 0.430066 -0.430067 -0.793779
vn -0.917839 0.245934 0.311590
vn -0.954132 0.255658 0.155795
vn -0.917839 -0.245934 0.311590
vn -0.954131 -0.255658 0.155795
vn -0.671905 -0.671905 0.311590
vn -0.698473 -0.698473 0.155795
vn -0.245934 -0.917839 0.311590
vn -0.255658 -0.954132 0.155795
vn 0.245934 -0.917839 0.311590
vn 0.255658 -0.954131 0.155795
vn 0.671905 -0.671905 0.311590
vn 0.698472 -0.698473 0.155795
vn 0.917839 -0.245934 0.311590
vn 0.954132 -0.255658 0.155795
vn 0.917839 0.245934 0.311590
vn 0.954131 0.255658 0.155795
vn 0.671905 0.671905 0.311590
vn 0.698473 0.698473 0.155795
vn 0.245934 0.917839 0.311590
vn 0.255658 0.954132 0.155795
vn -0.245934 0.917839 0.311590
vn -0.255658 0.954131 0.155795
vn -0.671905 0.671905 0.311590
vn -0.698472 0.698473 0.155795
s 1
g barrel tank_geo
usemtl initialShadingGroup
f 1/13/1 2/14/2 51/80/3
f 51/80/3 2/14/2 62/91/4
s 2
f 2/14/5 3/15/6 62/91/7
f 62/91/7 3/15/6 61/90/8
s 3
f 3/15/9 4/16/10 61/90/11
f 61/90/11 4/16/10 60/89/12
s 4
f 4/16/13 5/17/14 60/89/15
f 60/89/15 5/17/14 59/88/16
s 5
f 5/17/17 6/18/18 59/88/19
f 59/88/19 6/18/18 58/87/20
s 6
f 6/18/21 7/19/22 58/87/23
f 58/87/23 7/19/22 57/86/24
s 7
f 7/19/25 8/20/26 57/86/27
f 57/86/27 8/20/26 56/85/28
s 8
f 8/20/29 9/21/30 56/85/31
f 56/85/31 9/21/30 55/84/32
s 9
f 9/21/33 10/22/34 55/84/35
f 55/84/35 10/22/34 54/83/36
s 10
f 10/22/37 11/23/38 54/83/39
f 54/83/39 11/23/38 53/82/40
s 11
f 11/23/41 12/24/42 53/82/43
f 53/82/43 12/24/42 52/81/44
s 12
f 12/24/45 1/25/46 52/81/47
f 52/81/47 1/25/46 51/79/48
s 13
f 2/2/49 1/1/50 25/51/51
f 3/3/52 2/2/49 25/51/51
f 4/4/53 3/3/52 25/51/51
f 5/5/54 4/4/53 25/51/51
f 6/6/55 5/5/54 25/51/51
f 7/7/56 6/6/55 25/51/51
f 8/8/57 7/7/56 25/51/51
f 9/9/58 8/8/57 25/51/51
f 10/10/59 9/9/58 25/51/51
f 11/11/60 10/10/59 25/51/51
f 12/12/61 11/11/60 25/51/51
f 1/1/50 12/12/61 25/51/51
s 14
f 13/49/62 14/48/63 26/52/64
f 14/48/63 15/47/65 26/52/64
f 15/47/65 16/46/66 26/52/64
f 16/46/66 17/45/67 26/52/64
f 17/45/67 18/44/68 26/52/64
f 18/44/68 19/43/69 26/52/64
f 19/43/69 20/42/70 26/52/64
f 20/42/70 21/41/71 26/52/64
f 21/41/71 22/40/72 26/52/64
f 22/40/72 23/39/73 26/52/64
f 23/39/73 24/50/74 26/52/64
f 24/50/74 13/49/62 26/52/64
s 6
f 28/54/75 27/53/76 18/31/77
f 18/31/77 27/53/76 19/32/78
s 5
f 29/55/79 28/54/80 17/30/81
f 17/30/81 28/54/80 18/31/82
s 4
f 30/56/83 29/55/84 16/29/85
f 16/29/85 29/55/84 17/30/86
s 3
f 31/57/87 30/56/88 15/28/89
f 15/28/89 30/56/88 16/29/90
s 2
f 32/58/91 31/57/92 14/27/93
f 14/27/93 31/57/92 15/28/94
s 1
f 33/60/95 32/58/96 13/26/97
f 13/26/97 32/58/96 14/27/98
s 12
f 34/61/99 33/59/100 24/37/101
f 24/37/101 33/59/100 13/38/102
s 11
f 35/62/103 34/61/104 23/36/105
f 23/36/105 34/61/104 24/37/106
s 10
f 36/63/107 35/62/108 22/35/109
f 22/35/109 35/62/108 23/36/110
s 9
f 37/64/111 36/63/112 21/34/113
f 21/34/113 36/63/112 22/35/114
s 8
f 38/65/115 37/64/116 20/33/117
f 20/33/117 37/64/116 21/34/118
s 7
f 27/53/119 38/65/120 19/32/121
f 19/32/121 38/65/120 20/33/122
s 12
f 40/68/123 39/66/124 34/61/99
f 34/61/99 39/66/124 33/59/100
s 11
f 41/69/125 40/68/126 35/62/103
f 35/62/103 40/68/126 34/61/104
s 10
f 42/70/127 41/69/128 36/63/107
f 36/63/107 41/69/128 35/62/108
s 9
f 43/71/129 42/70/130 37/64/111
f 37/64/111 42/70/130 36/63/112
s 8
f 44/72/131 43/71/132 38/65/115
f 38/65/115 43/71/132 37/64/116
s 7
f 45/73/133 44/72/134 27/53/119
f 27/53/119 44/72/134 38/65/120
s 6
f 46/74/135 45/73/136 28/54/75
f 28/54/75 45/73/136 27/53/76
s 5
f 47/75/137 46/74/138 29/55/79
f 29/55/79 46/74/138 28/54/80
s 4
f 48/76/139 47/75/140 30/56/83
f 30/56/83 47/75/140 29/55/84
s 3
f 49/77/141 48/76/142 31/57/87
f 31/57/87 48/76/142 30/56/88
s 2
f 50/78/143 49/77/144 32/58/91
f 32/58/91 49/77/144 31/57/92
s 1
f 39/67/145 50/78/146 33/60/95
f 33/60/95 50/78/146 32/58/96
s 12
f 52/81/47 51/79/48 40/68/123
f 40/68/123 51/79/48 39/66/124
s 11
f 53/82/43 52/81/44 41/69/125
f 41/69/125 52/81/44 40/68/126
s 10
f 54/83/39 53/82/40 42/70/127
f 42/70/127 53/82/40 41/69/128
s 9
f 55/84/35 54/83/36 43/71/129
f 43/71/129 54/83/36 42/70/130
s 8
f 56/85/31 55/84/32 44/72/131
f 44/72/131 55/84/32 43/71/132
s 7
f 57/86/27 56/85/28 45/73/133
f 45/73/133 56/85/28 44/72/134
s 6
f 58/87/23 57/86/24 46/74/135
f 46/74/135 57/86/24 45/73/136
s 5
f 59/88/19 58/87/20 47/75/137
f 47/75/137 58/87/20 46/74/138
s 4
f 60/89/15 59/88/16 48/76/139
f 48/76/139 59/88/16 47/75/140
s 3
f 61/90/11 60/89/12 49/77/141
f 49/77/141 60/89/12 48/76/142
s 2
f 62/91/7 61/90/8 50/78/143
f 50/78/143 61/90/8 49/77/144
s 1
f 51/80/3 62/91/4 39/67/145
f 39/67/145 62/91/4 50/78/146
