# This file uses centimeters as units for non-parametric coordinates.

mtllib swivel.mtl
g default
v 0.138582 0.000000 -0.057402
v 0.106066 0.000000 -0.106066
v 0.057403 0.000000 -0.138582
v 0.000000 0.000000 -0.150000
v -0.057402 0.000000 -0.138582
v -0.106066 0.000000 -0.106066
v -0.138582 0.000000 -0.057403
v -0.150000 0.000000 -0.000000
v -0.138582 0.000000 0.057402
v -0.106066 0.000000 0.106066
v -0.057403 0.000000 0.138582
v -0.000000 0.000000 0.150000
v 0.057402 0.000000 0.138582
v 0.106066 0.000000 0.106066
v 0.138582 0.000000 0.057403
v 0.150000 0.000000 0.000000
v 0.138582 0.250000 -0.057402
v 0.106066 0.250000 -0.106066
v 0.057403 0.250000 -0.138582
v 0.000000 0.250000 -0.150000
v -0.057402 0.250000 -0.138582
v -0.106066 0.250000 -0.106066
v -0.138582 0.250000 -0.057403
v -0.150000 0.250000 -0.000000
v -0.138582 0.250000 0.057402
v -0.106066 0.250000 0.106066
v -0.057403 0.250000 0.138582
v -0.000000 0.250000 0.150000
v 0.057402 0.250000 0.138582
v 0.106066 0.250000 0.106066
v 0.138582 0.250000 0.057403
v 0.150000 0.250000 0.000000
v 0.000000 0.000000 0.000000
v 0.000000 0.250000 0.000000
vt 0.644356 0.096456
vt 0.610485 0.045765
vt 0.559794 0.011894
vt 0.500000 0.000000
vt 0.440206 0.011894
vt 0.389515 0.045765
vt 0.355644 0.096456
vt 0.343750 0.156250
vt 0.355644 0.216044
vt 0.389515 0.266735
vt 0.440206 0.300606
vt 0.500000 0.312500
vt 0.559794 0.300606
vt 0.610485 0.266735
vt 0.644356 0.216044
vt 0.656250 0.156250
vt 0.375000 0.312500
vt 0.390625 0.312500
vt 0.406250 0.312500
vt 0.421875 0.312500
vt 0.437500 0.312500
vt 0.453125 0.312500
vt 0.468750 0.312500
vt 0.484375 0.312500
vt 0.500000 0.312500
vt 0.515625 0.312500
vt 0.531250 0.312500
vt 0.546875 0.312500
vt 0.562500 0.312500
vt 0.578125 0.312500
vt 0.593750 0.312500
vt 0.609375 0.312500
vt 0.625000 0.312500
vt 0.375000 0.688440
vt 0.390625 0.688440
vt 0.406250 0.688440
vt 0.421875 0.688440
vt 0.437500 0.688440
vt 0.453125 0.688440
vt 0.468750 0.688440
vt 0.484375 0.688440
vt 0.500000 0.688440
vt 0.515625 0.688440
vt 0.531250 0.688440
vt 0.546875 0.688440
vt 0.562500 0.688440
vt 0.578125 0.688440
vt 0.593750 0.688440
vt 0.609375 0.688440
vt 0.625000 0.688440
vt 0.644356 0.783956
vt 0.610485 0.733265
vt 0.559794 0.699394
vt 0.500000 0.687500
vt 0.440206 0.699394
vt 0.389515 0.733265
vt 0.355644 0.783956
vt 0.343750 0.843750
vt 0.355644 0.903544
vt 0.389515 0.954235
vt 0.440206 0.988106
vt 0.500000 1.000000
vt 0.559794 0.988106
vt 0.610485 0.954235
vt 0.644356 0.903544
vt 0.656250 0.843750
vt 0.500000 0.150000
vt 0.500000 0.837500
vn 0.947173 0.000000 -0.320722
vn 0.752339 0.000000 -0.658776
vn 0.896538 0.000000 -0.442968
vn 0.658777 0.000000 -0.752339
vn 0.442968 0.000000 -0.896537
vn 0.320723 0.000000 -0.947173
vn 0.066159 0.000000 -0.997809
vn -0.066158 0.000000 -0.997809
vn -0.320722 0.000000 -0.947174
vn -0.442968 0.000000 -0.896538
vn -0.658776 0.000000 -0.752339
vn -0.752339 0.000000 -0.658777
vn -0.896537 0.000000 -0.442968
vn -0.947173 0.000000 -0.320723
vn -0.997809 0.000000 -0.066159
vn -0.997809 0.000000 0.066159
vn -0.947173 0.000000 0.320722
vn -0.896538 0.000000 0.442968
vn -0.752339 0.000000 0.658776
vn -0.658776 0.000000 0.752339
vn -0.442968 0.000000 0.896537
vn -0.320722 0.000000 0.947173
vn -0.066159 0.000000 0.997809
vn 0.066159 0.000000 0.997809
vn 0.320722 0.000000 0.947173
vn 0.442968 0.000000 0.896537
vn 0.658776 0.000000 0.752339
vn 0.752339 0.000000 0.658776
vn 0.896537 0.000000 0.442968
vn 0.947173 0.000000 0.320722
vn 0.997809 0.000000 0.066159
vn 0.997809 0.000000 -0.066159
vn 0.000000 -1.000000 0.000000
vn 0.000000 -1.000000 0.000000
vn 0.000000 -1.000000 0.000000
vn 0.000000 -1.000000 0.000000
vn 0.000000 -1.000000 0.000000
vn 0.000000 -1.000000 0.000000
vn 0.000000 -1.000000 0.000000
vn 0.000000 -1.000000 0.000000
vn 0.000000 -1.000000 0.000000
vn 0.000000 -1.000000 0.000000
vn 0.000000 -1.000000 0.000000
vn 0.000000 -1.000000 0.000000
vn 0.000000 -1.000000 0.000000
vn 0.000000 -1.000000 0.000000
vn 0.000000 -1.000000 0.000000
vn 0.000000 -1.000000 0.000000
vn 0.000000 -1.000000 0.000000
vn 0.000000 1.000000 0.000000
vn 0.000000 1.000000 0.000000
vn 0.000000 1.000000 -0.000000
vn 0.000000 1.000000 0.000000
vn 0.000000 1.000000 -0.000000
vn 0.000000 1.000000 -0.000000
vn 0.000000 1.000000 0.000000
vn 0.000000 1.000000 0.000000
vn 0.000000 1.000000 0.000000
vn 0.000000 1.000000 0.000000
vn 0.000000 1.000000 0.000000
vn 0.000000 1.000000 0.000000
vn 0.000000 1.000000 0.000000
vn 0.000000 1.000000 0.000000
vn 0.000000 1.000000 0.000000
vn 0.000000 1.000000 0.000000
vn 0.000000 1.000000 0.000000
s 1
g pCylinder1
usemtl initialShadingGroup
f 1/17/1 2/18/2 17/34/3
f 17/34/3 2/18/2 18/35/4
f 2/18/2 3/19/5 18/35/4
f 18/35/4 3/19/5 19/36/6
f 3/19/5 4/20/7 19/36/6
f 19/36/6 4/20/7 20/37/8
f 4/20/7 5/21/9 20/37/8
f 20/37/8 5/21/9 21/38/10
f 5/21/9 6/22/11 21/38/10
f 21/38/10 6/22/11 22/39/12
f 6/22/11 7/23/13 22/39/12
f 22/39/12 7/23/13 23/40/14
f 7/23/13 8/24/15 23/40/14
f 23/40/14 8/24/15 24/41/16
f 8/24/15 9/25/17 24/41/16
f 24/41/16 9/25/17 25/42/18
f 9/25/17 10/26/19 25/42/18
f 25/42/18 10/26/19 26/43/20
f 10/26/19 11/27/21 26/43/20
f 26/43/20 11/27/21 27/44/22
f 11/27/21 12/28/23 27/44/22
f 27/44/22 12/28/23 28/45/24
f 12/28/23 13/29/25 28/45/24
f 28/45/24 13/29/25 29/46/26
f 13/29/25 14/30/27 29/46/26
f 29/46/26 14/30/27 30/47/28
f 14/30/27 15/31/29 30/47/28
f 30/47/28 15/31/29 31/48/30
f 15/31/29 16/32/31 31/48/30
f 31/48/30 16/32/31 32/49/32
f 16/32/31 1/33/1 32/49/32
f 32/49/32 1/33/1 17/50/3
s 2
f 2/2/33 1/1/34 33/67/35
f 3/3/36 2/2/33 33/67/35
f 4/4/37 3/3/36 33/67/35
f 5/5/38 4/4/37 33/67/35
f 6/6/39 5/5/38 33/67/35
f 7/7/40 6/6/39 33/67/35
f 8/8/41 7/7/40 33/67/35
f 9/9/42 8/8/41 33/67/35
f 10/10/43 9/9/42 33/67/35
f 11/11/44 10/10/43 33/67/35
f 12/12/45 11/11/44 33/67/35
f 13/13/46 12/12/45 33/67/35
f 14/14/47 13/13/46 33/67/35
f 15/15/48 14/14/47 33/67/35
f 16/16/49 15/15/48 33/67/35
f 1/1/34 16/16/49 33/67/35
s 3
f 17/65/50 18/64/51 34/68/52
f 18/64/51 19/63/53 34/68/52
f 19/63/53 20/62/54 34/68/52
f 20/62/54 21/61/55 34/68/52
f 21/61/55 22/60/56 34/68/52
f 22/60/56 23/59/57 34/68/52
f 23/59/57 24/58/58 34/68/52
f 24/58/58 25/57/59 34/68/52
f 25/57/59 26/56/60 34/68/52
f 26/56/60 27/55/61 34/68/52
f 27/55/61 28/54/62 34/68/52
f 28/54/62 29/53/63 34/68/52
f 29/53/63 30/52/64 34/68/52
f 30/52/64 31/51/65 34/68/52
f 31/51/65 32/66/66 34/68/52
f 32/66/66 17/65/50 34/68/52
