# This file uses centimeters as units for non-parametric coordinates.

mtllib target.mtl
g default
v 0.230970 0.000000 -0.095671
v 0.176777 0.000000 -0.176777
v 0.095671 0.000000 -0.230970
v 0.000000 0.000000 -0.250000
v -0.095671 0.000000 -0.230970
v -0.176777 0.000000 -0.176777
v -0.230970 0.000000 -0.095671
v -0.250000 0.000000 0.000000
v -0.230970 0.000000 0.095671
v -0.176777 0.000000 0.176777
v -0.095671 0.000000 0.230970
v 0.000000 0.000000 0.250000
v 0.095671 0.000000 0.230970
v 0.176777 0.000000 0.176777
v 0.230970 0.000000 0.095671
v 0.250000 0.000000 0.000000
v 0.230970 0.020000 -0.095671
v 0.176777 0.020000 -0.176777
v 0.095671 0.020000 -0.230970
v 0.000000 0.020000 -0.250000
v -0.095671 0.020000 -0.230970
v -0.176777 0.020000 -0.176777
v -0.230970 0.020000 -0.095671
v -0.250000 0.020000 0.000000
v -0.230970 0.020000 0.095671
v -0.176777 0.020000 0.176777
v -0.095671 0.020000 0.230970
v 0.000000 0.020000 0.250000
v 0.095671 0.020000 0.230970
v 0.176777 0.020000 0.176777
v 0.230970 0.020000 0.095671
v 0.250000 0.020000 0.000000
v 0.000000 0.000000 0.000000
v 0.000000 0.020000 0.000000
vt 0.375000 0.312500
vt 0.390625 0.312500
vt 0.390625 0.688440
vt 0.375000 0.688440
vt 0.406250 0.312500
vt 0.406250 0.688440
vt 0.421875 0.312500
vt 0.421875 0.688440
vt 0.437500 0.312500
vt 0.437500 0.688440
vt 0.453125 0.312500
vt 0.453125 0.688440
vt 0.468750 0.312500
vt 0.468750 0.688440
vt 0.484375 0.312500
vt 0.484375 0.688440
vt 0.500000 0.312500
vt 0.500000 0.688440
vt 0.515625 0.312500
vt 0.515625 0.688440
vt 0.531250 0.312500
vt 0.531250 0.688440
vt 0.546875 0.312500
vt 0.546875 0.688440
vt 0.562500 0.312500
vt 0.562500 0.688440
vt 0.578125 0.312500
vt 0.578125 0.688440
vt 0.593750 0.312500
vt 0.593750 0.688440
vt 0.609375 0.312500
vt 0.609375 0.688440
vt 0.625000 0.312500
vt 0.625000 0.688440
vt 0.610485 0.045765
vt 0.644356 0.096456
vt 0.500000 0.150000
vt 0.559794 0.011894
vt 0.500000 0.000000
vt 0.440206 0.011894
vt 0.389515 0.045765
vt 0.355644 0.096456
vt 0.343750 0.156250
vt 0.355644 0.216044
vt 0.389515 0.266735
vt 0.440206 0.300606
vt 0.500000 0.312500
vt 0.559794 0.300606
vt 0.610485 0.266735
vt 0.644356 0.216044
vt 0.656250 0.156250
vt 0.644356 0.903544
vt 0.610485 0.954235
vt 0.500000 0.837500
vt 0.559794 0.988106
vt 0.500000 1.000000
vt 0.440206 0.988106
vt 0.389515 0.954235
vt 0.355644 0.903544
vt 0.343750 0.843750
vt 0.355644 0.783956
vt 0.389515 0.733265
vt 0.440206 0.699394
vt 0.500000 0.687500
vt 0.559794 0.699394
vt 0.610485 0.733265
vt 0.644356 0.783956
vt 0.656250 0.843750
vn 0.923880 0.000000 -0.382683
vn 0.707107 0.000000 -0.707106
vn 0.923880 0.000000 -0.382683
vn 0.707107 0.000000 -0.707106
vn 0.707107 0.000000 -0.707106
vn 0.382684 0.000000 -0.923879
vn 0.707107 0.000000 -0.707106
vn 0.382684 0.000000 -0.923879
vn 0.382684 0.000000 -0.923879
vn 0.000000 0.000000 -1.000000
vn 0.382684 0.000000 -0.923879
vn 0.000000 0.000000 -1.000000
vn 0.000000 0.000000 -1.000000
vn -0.382683 0.000000 -0.923880
vn 0.000000 0.000000 -1.000000
vn -0.382683 0.000000 -0.923880
vn -0.382683 0.000000 -0.923880
vn -0.707106 0.000000 -0.707107
vn -0.382683 0.000000 -0.923880
vn -0.707106 0.000000 -0.707107
vn -0.707106 0.000000 -0.707107
vn -0.923879 0.000000 -0.382684
vn -0.707106 0.000000 -0.707107
vn -0.923879 0.000000 -0.382684
vn -0.923879 0.000000 -0.382684
vn -1.000000 0.000000 -0.000000
vn -0.923879 0.000000 -0.382684
vn -1.000000 0.000000 -0.000000
vn -1.000000 0.000000 -0.000000
vn -0.923880 0.000000 0.382683
vn -1.000000 0.000000 -0.000000
vn -0.923880 0.000000 0.382683
vn -0.923880 0.000000 0.382683
vn -0.707107 0.000000 0.707107
vn -0.923880 0.000000 0.382683
vn -0.707107 0.000000 0.707107
vn -0.707107 0.000000 0.707107
vn -0.382684 0.000000 0.923879
vn -0.707107 0.000000 0.707107
vn -0.382684 0.000000 0.923879
vn -0.382684 0.000000 0.923879
vn 0.000000 0.000000 1.000000
vn -0.382684 0.000000 0.923879
vn 0.000000 0.000000 1.000000
vn 0.000000 0.000000 1.000000
vn 0.382683 0.000000 0.923880
vn 0.000000 0.000000 1.000000
vn 0.382683 0.000000 0.923880
vn 0.382683 0.000000 0.923880
vn 0.707107 0.000000 0.707107
vn 0.382683 0.000000 0.923880
vn 0.707107 0.000000 0.707107
vn 0.707107 0.000000 0.707107
vn 0.923880 0.000000 0.382684
vn 0.707107 0.000000 0.707107
vn 0.923880 0.000000 0.382684
vn 0.923880 0.000000 0.382684
vn 1.000000 0.000000 0.000000
vn 0.923880 0.000000 0.382684
vn 1.000000 0.000000 0.000000
vn 1.000000 0.000000 0.000000
vn 0.923880 0.000000 -0.382683
vn 1.000000 0.000000 0.000000
vn 0.923880 0.000000 -0.382683
vn 0.000000 -1.000000 0.000000
vn 0.000000 -1.000000 0.000000
vn 0.000000 -1.000000 0.000000
vn 0.000000 -1.000000 0.000000
vn 0.000000 -1.000000 0.000000
vn 0.000000 -1.000000 0.000000
vn 0.000000 -1.000000 0.000000
vn 0.000000 -1.000000 0.000000
vn 0.000000 -1.000000 0.000000
vn 0.000000 -1.000000 0.000000
vn 0.000000 -1.000000 0.000000
vn 0.000000 -1.000000 0.000000
vn 0.000000 -1.000000 0.000000
vn 0.000000 -1.000000 0.000000
vn 0.000000 -1.000000 0.000000
vn 0.000000 -1.000000 0.000000
vn 0.000000 -1.000000 0.000000
vn 0.000000 -1.000000 0.000000
vn 0.000000 -1.000000 0.000000
vn 0.000000 -1.000000 0.000000
vn 0.000000 -1.000000 0.000000
vn 0.000000 -1.000000 0.000000
vn 0.000000 -1.000000 0.000000
vn 0.000000 -1.000000 0.000000
vn 0.000000 -1.000000 0.000000
vn 0.000000 -1.000000 0.000000
vn 0.000000 -1.000000 0.000000
vn 0.000000 -1.000000 0.000000
vn 0.000000 -1.000000 0.000000
vn 0.000000 -1.000000 0.000000
vn 0.000000 -1.000000 0.000000
vn 0.000000 -1.000000 0.000000
vn 0.000000 -1.000000 0.000000
vn 0.000000 -1.000000 0.000000
vn 0.000000 -1.000000 0.000000
vn 0.000000 -1.000000 0.000000
vn 0.000000 -1.000000 0.000000
vn 0.000000 -1.000000 0.000000
vn 0.000000 -1.000000 0.000000
vn 0.000000 -1.000000 0.000000
vn 0.000000 -1.000000 0.000000
vn 0.000000 -1.000000 0.000000
vn 0.000000 -1.000000 0.000000
vn 0.000000 -1.000000 0.000000
vn 0.000000 -1.000000 0.000000
vn 0.000000 -1.000000 0.000000
vn 0.000000 -1.000000 0.000000
vn 0.000000 -1.000000 0.000000
vn 0.000000 1.000000 0.000000
vn 0.000000 1.000000 0.000000
vn 0.000000 1.000000 0.000000
vn 0.000000 1.000000 0.000000
vn 0.000000 1.000000 0.000000
vn 0.000000 1.000000 0.000000
vn 0.000000 1.000000 0.000000
vn 0.000000 1.000000 0.000000
vn 0.000000 1.000000 0.000000
vn 0.000000 1.000000 0.000000
vn 0.000000 1.000000 0.000000
vn 0.000000 1.000000 0.000000
vn 0.000000 1.000000 0.000000
vn 0.000000 1.000000 0.000000
vn 0.000000 1.000000 0.000000
vn 0.000000 1.000000 0.000000
vn 0.000000 1.000000 0.000000
vn 0.000000 1.000000 0.000000
vn 0.000000 1.000000 0.000000
vn 0.000000 1.000000 0.000000
vn 0.000000 1.000000 0.000000
vn 0.000000 1.000000 0.000000
vn 0.000000 1.000000 0.000000
vn 0.000000 1.000000 0.000000
vn 0.000000 1.000000 0.000000
vn 0.000000 1.000000 0.000000
vn 0.000000 1.000000 0.000000
vn 0.000000 1.000000 0.000000
vn 0.000000 1.000000 0.000000
vn 0.000000 1.000000 0.000000
vn 0.000000 1.000000 0.000000
vn 0.000000 1.000000 0.000000
vn 0.000000 1.000000 0.000000
vn 0.000000 1.000000 0.000000
vn 0.000000 1.000000 0.000000
vn 0.000000 1.000000 0.000000
vn 0.000000 1.000000 0.000000
vn 0.000000 1.000000 0.000000
vn 0.000000 1.000000 0.000000
vn 0.000000 1.000000 0.000000
vn 0.000000 1.000000 0.000000
vn 0.000000 1.000000 0.000000
vn 0.000000 1.000000 0.000000
vn 0.000000 1.000000 0.000000
vn 0.000000 1.000000 0.000000
vn 0.000000 1.000000 0.000000
vn 0.000000 1.000000 0.000000
vn 0.000000 1.000000 0.000000
s 1
g target:pCylinder1
usemtl target:initialShadingGroup
f 1/1/1 2/2/2 17/4/3
f 17/4/3 2/2/2 18/3/4
s 2
f 2/2/5 3/5/6 18/3/7
f 18/3/7 3/5/6 19/6/8
s 3
f 3/5/9 4/7/10 19/6/11
f 19/6/11 4/7/10 20/8/12
s 4
f 4/7/13 5/9/14 20/8/15
f 20/8/15 5/9/14 21/10/16
s 5
f 5/9/17 6/11/18 21/10/19
f 21/10/19 6/11/18 22/12/20
s 6
f 6/11/21 7/13/22 22/12/23
f 22/12/23 7/13/22 23/14/24
s 7
f 7/13/25 8/15/26 23/14/27
f 23/14/27 8/15/26 24/16/28
s 8
f 8/15/29 9/17/30 24/16/31
f 24/16/31 9/17/30 25/18/32
s 9
f 9/17/33 10/19/34 25/18/35
f 25/18/35 10/19/34 26/20/36
s 10
f 10/19/37 11/21/38 26/20/39
f 26/20/39 11/21/38 27/22/40
s 11
f 11/21/41 12/23/42 27/22/43
f 27/22/43 12/23/42 28/24/44
s 12
f 12/23/45 13/25/46 28/24/47
f 28/24/47 13/25/46 29/26/48
s 13
f 13/25/49 14/27/50 29/26/51
f 29/26/51 14/27/50 30/28/52
s 14
f 14/27/53 15/29/54 30/28/55
f 30/28/55 15/29/54 31/30/56
s 15
f 15/29/57 16/31/58 31/30/59
f 31/30/59 16/31/58 32/32/60
s 16
f 16/31/61 1/33/62 32/32/63
f 32/32/63 1/33/62 17/34/64
s off
f 2/35/65 1/36/66 33/37/67
f 3/38/68 2/35/69 33/37/70
f 4/39/71 3/38/72 33/37/73
f 5/40/74 4/39/75 33/37/76
f 6/41/77 5/40/78 33/37/79
f 7/42/80 6/41/81 33/37/82
f 8/43/83 7/42/84 33/37/85
f 9/44/86 8/43/87 33/37/88
f 10/45/89 9/44/90 33/37/91
f 11/46/92 10/45/93 33/37/94
f 12/47/95 11/46/96 33/37/97
f 13/48/98 12/47/99 33/37/100
f 14/49/101 13/48/102 33/37/103
f 15/50/104 14/49/105 33/37/106
f 16/51/107 15/50/108 33/37/109
f 1/36/110 16/51/111 33/37/112
f 17/52/113 18/53/114 34/54/115
f 18/53/116 19/55/117 34/54/118
f 19/55/119 20/56/120 34/54/121
f 20/56/122 21/57/123 34/54/124
f 21/57/125 22/58/126 34/54/127
f 22/58/128 23/59/129 34/54/130
f 23/59/131 24/60/132 34/54/133
f 24/60/134 25/61/135 34/54/136
f 25/61/137 26/62/138 34/54/139
f 26/62/140 27/63/141 34/54/142
f 27/63/143 28/64/144 34/54/145
f 28/64/146 29/65/147 34/54/148
f 29/65/149 30/66/150 34/54/151
f 30/66/152 31/67/153 34/54/154
f 31/67/155 32/68/156 34/54/157
f 32/68/158 17/52/159 34/54/160
