# This file uses centimeters as units for non-parametric coordinates.

mtllib turret.mtl
g default
v 0.349768 0.015464 -0.284567
v 0.225000 0.015464 -0.300000
v 0.000000 0.015464 -0.300000
v -0.225000 0.015464 -0.300000
v -0.349768 0.015464 -0.284567
v 0.387523 0.048797 -0.345625
v 0.249287 0.048797 -0.364369
v 0.000000 0.048797 -0.364369
v -0.249287 0.048797 -0.364369
v -0.387523 0.048797 -0.345625
v 0.387523 0.082131 -0.345625
v 0.249287 0.082131 -0.364369
v 0.000000 0.082131 -0.364369
v -0.249287 0.082131 -0.364369
v -0.387523 0.082131 -0.345625
v 0.349768 0.143946 -0.284567
v 0.225000 0.143946 -0.300000
v 0.000000 0.143946 -0.300000
v -0.225000 0.143946 -0.300000
v -0.349768 0.143946 -0.284567
v 0.450000 0.143946 -0.150000
v 0.225000 0.143946 -0.150000
v 0.000000 0.143946 -0.150000
v -0.225000 0.143946 -0.150000
v -0.450000 0.143946 -0.150000
v 0.450000 0.143946 0.000000
v 0.225000 0.143946 0.000000
v -0.225000 0.143946 -0.000000
v -0.450000 0.143946 -0.000000
v 0.450000 0.143946 0.150000
v 0.225000 0.143946 0.150000
v -0.000000 0.143946 0.150000
v -0.225000 0.143946 0.150000
v -0.450000 0.143946 0.150000
v 0.349768 0.143946 0.284567
v 0.225000 0.143946 0.300000
v -0.000000 0.143946 0.300000
v -0.225000 0.143946 0.300000
v -0.349768 0.143946 0.284567
v 0.387523 0.082131 0.345625
v 0.249287 0.082131 0.364369
v -0.000000 0.082131 0.364369
v -0.249287 0.082131 0.364369
v -0.387523 0.082131 0.345625
v 0.387523 0.048797 0.345625
v 0.249287 0.048797 0.364369
v -0.000000 0.048797 0.364369
v -0.249287 0.048797 0.364369
v -0.387523 0.048797 0.345625
v 0.349768 0.015464 0.284567
v 0.225000 0.015464 0.300000
v -0.000000 0.015464 0.300000
v -0.225000 0.015464 0.300000
v -0.349768 0.015464 0.284567
v 0.450000 0.015464 0.150000
v 0.225000 0.015464 0.150000
v -0.000000 0.015464 0.150000
v -0.225000 0.015464 0.150000
v -0.450000 0.015464 0.150000
v 0.450000 0.015464 0.000000
v 0.225000 0.015464 0.000000
v -0.225000 0.015464 -0.000000
v -0.450000 0.015464 -0.000000
v 0.450000 0.015464 -0.150000
v 0.225000 0.015464 -0.150000
v 0.000000 0.015464 -0.150000
v -0.225000 0.015464 -0.150000
v -0.450000 0.015464 -0.150000
v -0.498574 0.048797 0.182184
v -0.498574 0.048797 -0.000000
v -0.498574 0.048797 -0.182184
v -0.498574 0.082131 0.182184
v -0.498574 0.082131 -0.000000
v -0.498574 0.082131 -0.182184
v 0.498574 0.048797 0.182184
v 0.498574 0.048797 0.000000
v 0.498574 0.048797 -0.182184
v 0.498574 0.082131 0.182184
v 0.498574 0.082131 0.000000
v 0.498574 0.082131 -0.182184
v 0.321946 -0.229548 0.012990
v 0.321946 -0.229548 -0.012990
v 0.299446 -0.229548 0.000000
v 0.314446 0.770452 0.000000
v -0.099619 0.100255 -0.125000
v -0.154108 0.100255 -0.125000
v -0.267994 0.100255 -0.125000
v -0.349619 0.100255 -0.125000
v -0.099619 0.270774 -0.125000
v -0.154108 0.270774 -0.125000
v -0.267994 0.270774 -0.125000
v -0.349619 0.270774 -0.125000
v -0.099619 0.270774 -0.000000
v -0.154108 0.270774 -0.000000
v -0.267994 0.270774 -0.000000
v -0.349619 0.270774 -0.000000
v -0.107523 0.194811 0.125000
v -0.154108 0.194811 0.125000
v -0.267994 0.194811 0.125000
v -0.341716 0.194811 0.125000
v -0.107523 0.100255 0.125000
v -0.154108 0.100255 0.125000
v -0.267994 0.100255 0.125000
v -0.341716 0.100255 0.125000
v -0.099619 0.100255 -0.000000
v -0.154108 0.100255 -0.000000
v -0.267994 0.100255 -0.000000
v -0.349619 0.100255 -0.000000
v -0.154108 0.310782 -0.125000
v -0.267994 0.310782 -0.125000
v -0.267994 0.310782 -0.000000
v -0.154108 0.310782 -0.000000
vt 0.496349 0.408005
vt 0.532519 0.421652
vt 0.487677 0.478116
vt 0.532519 0.281572
vt 0.521987 0.499331
vt 0.412060 0.408005
vt 0.496349 0.281572
vt 0.430145 0.561733
vt 0.412060 0.534439
vt 0.496349 0.155138
vt 0.327771 0.408005
vt 0.412060 0.281572
vt 0.532519 0.141491
vt 0.327771 0.534439
vt 0.412060 0.155138
vt 0.487677 0.085027
vt 0.327771 0.561733
vt 0.243482 0.408005
vt 0.243482 0.281572
vt 0.521987 0.063812
vt 0.225396 0.561733
vt 0.243482 0.534439
vt 0.327771 0.155138
vt 0.412060 0.028705
vt 0.430145 0.001410
vt 0.167865 0.478116
vt 0.159193 0.408005
vt 0.243482 0.155138
vt 0.327771 0.028705
vt 0.159193 0.281572
vt 0.243482 0.028705
vt 0.133555 0.499331
vt 0.123022 0.421652
vt 0.123022 0.281572
vt 0.159193 0.155138
vt 0.167865 0.085027
vt 0.225396 0.001410
vt 0.327771 0.001410
vt 0.123022 0.141491
vt 0.133555 0.063812
vt 0.062604 0.499331
vt 0.062604 0.421653
vt 0.081335 0.499331
vt 0.081335 0.421653
vt 0.081335 0.561734
vt 0.081335 0.281572
vt 0.116071 0.478116
vt 0.062604 0.561734
vt 0.062604 0.281572
vt 0.116071 0.408005
vt 0.081335 0.141491
vt 0.116071 0.281572
vt 0.062604 0.141491
vt 0.116071 0.155138
vt 0.062604 0.063812
vt 0.116071 0.085027
vt 0.081335 0.063812
vt 0.062604 0.001410
vt 0.081335 0.001410
vt 0.565736 0.408005
vt 0.650025 0.408005
vt 0.574408 0.478116
vt 0.650025 0.281572
vt 0.650025 0.534439
vt 0.565736 0.281572
vt 0.734314 0.408005
vt 0.734314 0.534439
vt 0.631939 0.561733
vt 0.650025 0.155138
vt 0.818603 0.281572
vt 0.540098 0.499331
vt 0.565736 0.155138
vt 0.734314 0.155138
vt 0.818603 0.155138
vt 0.818603 0.408005
vt 0.818603 0.534439
vt 0.734314 0.561733
vt 0.574408 0.085027
vt 0.650025 0.028704
vt 0.902892 0.155138
vt 0.902892 0.281572
vt 0.836688 0.561733
vt 0.734314 0.028704
vt 0.894220 0.085027
vt 0.894220 0.478116
vt 0.902892 0.408005
vt 0.631939 0.001410
vt 0.818603 0.028704
vt 0.939062 0.141491
vt 0.939062 0.281572
vt 0.928530 0.499331
vt 0.540098 0.063812
vt 0.734314 0.001410
vt 0.836688 0.001410
vt 0.928530 0.063812
vt 0.939062 0.421652
vt 0.945480 0.499331
vt 0.945480 0.421652
vt 0.964211 0.499331
vt 0.964211 0.421652
vt 0.964211 0.561733
vt 0.964211 0.281572
vt 0.945480 0.561733
vt 0.945480 0.281572
vt 0.964211 0.141491
vt 0.945480 0.141491
vt 0.945480 0.063812
vt 0.964211 0.063812
vt 0.945480 0.001410
vt 0.964211 0.001410
vt 0.989547 0.206158
vt 0.970816 0.206158
vt 0.989547 0.103784
vt 0.970816 0.103784
vt 0.989547 0.001410
vt 0.970816 0.001410
vt 0.998008 0.414898
vt 0.979277 0.414898
vt 0.998008 0.312524
vt 0.979277 0.312524
vt 0.998008 0.210150
vt 0.979277 0.210150
vt 0.123670 0.565725
vt 0.136313 0.573025
vt 0.123670 0.580324
vt 0.021676 0.001410
vt 0.036276 0.001410
vt 0.028976 0.563336
vt 0.043115 0.001410
vt 0.055758 0.001410
vt 0.047329 0.563336
vt 0.014635 0.563336
vt 0.001992 0.563336
vt 0.006206 0.001410
vt 0.357699 0.706207
vt 0.357699 0.675588
vt 0.453518 0.706207
vt 0.453518 0.675588
vt 0.357699 0.611592
vt 0.453518 0.611592
vt 0.357699 0.565725
vt 0.475999 0.675588
vt 0.453518 0.565725
vt 0.475999 0.611592
vt 0.832660 0.565725
vt 0.863279 0.565725
vt 0.832660 0.635966
vt 0.863279 0.635966
vt 0.837101 0.706207
vt 0.863279 0.706207
vt 0.927274 0.635966
vt 0.927274 0.706207
vt 0.968700 0.706207
vt 0.973142 0.635966
vt 0.973142 0.565725
vt 0.927274 0.565725
vt 0.228299 0.565725
vt 0.292294 0.565725
vt 0.228299 0.635966
vt 0.292294 0.635966
vt 0.298430 0.697324
vt 0.298430 0.671147
vt 0.351563 0.697324
vt 0.351563 0.671147
vt 0.298430 0.607151
vt 0.351563 0.607151
vt 0.298430 0.565725
vt 0.351563 0.565725
vt 0.716662 0.565725
vt 0.716662 0.635966
vt 0.690484 0.565725
vt 0.780657 0.565725
vt 0.686043 0.635966
vt 0.780657 0.635966
vt 0.686043 0.706207
vt 0.822083 0.565725
vt 0.716662 0.706207
vt 0.826525 0.635966
vt 0.780657 0.706207
vt 0.826525 0.706207
vt 0.584089 0.565725
vt 0.637222 0.565725
vt 0.584089 0.635966
vt 0.679908 0.635966
vt 0.679908 0.706207
vt 0.584089 0.706207
vt 0.482134 0.706207
vt 0.482134 0.635966
vt 0.535268 0.706207
vt 0.577953 0.635966
vt 0.482134 0.565725
vt 0.577953 0.565725
vt 0.199682 0.635966
vt 0.199682 0.565725
vt 0.222163 0.635966
vt 0.222163 0.565725
vt 0.164930 0.565725
vt 0.164930 0.629721
vt 0.142448 0.565725
vt 0.142448 0.629721
vt 0.171065 0.635966
vt 0.171065 0.565725
vt 0.193547 0.635966
vt 0.193547 0.565725
vn 0.018263 -0.890647 -0.454329
vn 0.064290 -0.447310 -0.892065
vn 0.057827 -0.893209 -0.445908
vn 0.114531 -0.522910 -0.844658
vn 0.000000 -0.591700 -0.806158
vn 0.000000 -0.887998 -0.459848
vn -0.058305 -0.623679 -0.779503
vn -0.018263 -0.890647 -0.454329
vn -0.057827 -0.893209 -0.445908
vn -0.126285 -0.341539 -0.931345
vn 0.129690 0.261493 -0.956453
vn 0.067361 0.474615 -0.877612
vn 0.000000 0.447185 -0.894441
vn -0.069124 0.339722 -0.937982
vn -0.123364 0.396278 -0.909805
vn 0.087750 0.730991 -0.676722
vn 0.027800 0.726211 -0.686910
vn 0.000000 0.721270 -0.692654
vn -0.027800 0.726211 -0.686910
vn -0.087750 0.730991 -0.676722
vn 0.000000 1.000000 0.000000
vn 0.000000 1.000000 0.000000
vn 0.000000 1.000000 0.000000
vn 0.000000 1.000000 0.000000
vn 0.000000 1.000000 0.000000
vn 0.000000 1.000000 0.000000
vn 0.000000 1.000000 0.000000
vn 0.000000 1.000000 0.000000
vn 0.000000 1.000000 0.000000
vn 0.000000 1.000000 0.000000
vn 0.000000 1.000000 0.000000
vn 0.000000 1.000000 0.000000
vn 0.000000 1.000000 0.000000
vn 0.000000 1.000000 0.000000
vn 0.000000 1.000000 0.000000
vn 0.000000 1.000000 0.000000
vn 0.000000 1.000000 0.000000
vn 0.000000 1.000000 0.000000
vn 0.000000 1.000000 0.000000
vn 0.000000 1.000000 0.000000
vn 0.000000 1.000000 0.000000
vn 0.000000 1.000000 0.000000
vn 0.000000 1.000000 0.000000
vn 0.000000 1.000000 0.000000
vn 0.027800 0.726210 0.686910
vn 0.069124 0.339722 0.937982
vn 0.087750 0.730990 0.676722
vn 0.123364 0.396278 0.909805
vn -0.000000 0.447185 0.894441
vn -0.000000 0.721269 0.692655
vn -0.067361 0.474615 0.877612
vn -0.027800 0.726211 0.686910
vn -0.087750 0.730991 0.676722
vn -0.129690 0.261493 0.956453
vn 0.126285 -0.341539 0.931345
vn 0.058305 -0.623679 0.779503
vn -0.000000 -0.591700 0.806158
vn -0.064291 -0.447310 0.892065
vn -0.114531 -0.522910 0.844658
vn 0.057827 -0.893209 0.445908
vn 0.018263 -0.890647 0.454329
vn -0.000000 -0.887998 0.459847
vn -0.018263 -0.890647 0.454329
vn -0.057827 -0.893209 0.445908
vn 0.000000 -1.000000 -0.000000
vn 0.000000 -1.000000 -0.000000
vn 0.000000 -1.000000 -0.000000
vn 0.000000 -1.000000 -0.000000
vn 0.000000 -1.000000 -0.000000
vn 0.000000 -1.000000 -0.000000
vn 0.000000 -1.000000 -0.000000
vn 0.000000 -1.000000 -0.000000
vn 0.000000 -1.000000 -0.000000
vn 0.000000 -1.000000 -0.000000
vn -0.000000 -1.000000 0.000000
vn -0.000000 -1.000000 0.000000
vn 0.000000 -1.000000 -0.000000
vn 0.000000 -1.000000 -0.000000
vn 0.000000 -1.000000 -0.000000
vn 0.000000 -1.000000 -0.000000
vn 0.000000 -1.000000 -0.000000
vn 0.000000 -1.000000 -0.000000
vn 0.000000 -1.000000 -0.000000
vn -0.000000 -1.000000 0.000000
vn 0.000000 -1.000000 -0.000000
vn 0.000000 -1.000000 -0.000000
vn 0.000000 -1.000000 -0.000000
vn 0.000000 -1.000000 -0.000000
vn -0.489525 -0.858865 0.150717
vn -0.386957 -0.879835 0.275960
vn -0.721163 -0.658496 0.215189
vn -0.777414 -0.341484 0.528220
vn -0.489525 -0.858865 -0.150717
vn -0.565824 -0.824526 -0.000000
vn -0.825731 -0.506185 -0.248887
vn -0.928756 -0.370692 -0.000000
vn -0.386958 -0.879835 -0.275961
vn -0.705085 -0.522821 -0.479075
vn -0.888976 0.369144 0.271025
vn -0.759460 0.396158 0.516022
vn -0.835964 0.486490 -0.253953
vn -0.965369 0.260887 -0.000000
vn -0.798372 0.261416 -0.542461
vn -0.576075 0.706830 0.410523
vn -0.706171 0.671618 0.224168
vn -0.706171 0.671618 -0.224168
vn -0.786289 0.617859 -0.000000
vn -0.576075 0.706830 -0.410523
vn 0.489525 -0.858865 0.150717
vn 0.825731 -0.506185 0.248887
vn 0.386957 -0.879835 0.275961
vn 0.705085 -0.522821 0.479075
vn 0.565824 -0.824526 0.000000
vn 0.928756 -0.370692 0.000000
vn 0.721163 -0.658496 -0.215189
vn 0.489525 -0.858865 -0.150717
vn 0.386958 -0.879835 -0.275960
vn 0.777414 -0.341484 -0.528220
vn 0.798372 0.261416 0.542461
vn 0.835964 0.486490 0.253953
vn 0.965369 0.260887 0.000000
vn 0.888976 0.369144 -0.271025
vn 0.759460 0.396159 -0.516022
vn 0.576076 0.706830 0.410523
vn 0.706171 0.671618 0.224168
vn 0.786289 0.617859 0.000000
vn 0.706171 0.671618 -0.224168
vn 0.576075 0.706830 -0.410522
vn 0.000000 -1.000000 -0.000000
vn 0.000000 -1.000000 -0.000000
vn 0.000000 -1.000000 -0.000000
vn 0.999972 0.007500 0.000000
vn 0.999972 0.007500 0.000000
vn 0.999972 0.007500 0.000000
vn -0.499986 0.007500 -0.866001
vn -0.499986 0.007500 -0.866001
vn -0.499986 0.007500 -0.866001
vn -0.499986 0.007500 0.866001
vn -0.499986 0.007500 0.866001
vn -0.499986 0.007500 0.866001
vn 0.000000 0.000000 -1.000000
vn 0.000000 0.000000 -1.000000
vn 0.000000 0.000000 -1.000000
vn 0.000000 0.000000 -1.000000
vn 0.000000 0.000000 -1.000000
vn 0.000000 0.000000 -1.000000
vn 0.000000 0.000000 -1.000000
vn 0.000000 0.000000 -1.000000
vn 0.000000 1.000000 0.000000
vn 0.000000 1.000000 0.000000
vn -0.000000 0.983851 0.178990
vn -0.000000 0.916266 0.400571
vn 0.000000 1.000000 0.000000
vn 0.000000 1.000000 0.000000
vn 0.000000 1.000000 0.000000
vn 0.000000 1.000000 0.000000
vn 0.000000 1.000000 0.000000
vn 0.000000 1.000000 0.000000
vn -0.000000 0.933729 0.357980
vn -0.000000 0.962958 0.269652
vn -0.000000 0.854575 0.519327
vn -0.000000 0.854575 0.519327
vn -0.000000 0.854575 0.519328
vn -0.000000 0.854575 0.519328
vn -0.000000 0.000000 1.000000
vn -0.000000 0.000000 1.000000
vn -0.000000 0.000000 1.000000
vn -0.000000 0.000000 1.000000
vn -0.000000 0.000000 1.000000
vn -0.000000 0.000000 1.000000
vn -0.000000 0.000000 1.000000
vn -0.000000 0.000000 1.000000
vn 0.000000 -1.000000 -0.000000
vn 0.000000 -1.000000 -0.000000
vn 0.000000 -1.000000 -0.000000
vn 0.000000 -1.000000 -0.000000
vn 0.000000 -1.000000 -0.000000
vn 0.000000 -1.000000 -0.000000
vn 0.000000 -1.000000 -0.000000
vn 0.000000 -1.000000 -0.000000
vn 0.000000 -1.000000 -0.000000
vn 0.000000 -1.000000 -0.000000
vn 0.000000 -1.000000 -0.000000
vn 0.000000 -1.000000 -0.000000
vn -0.998007 0.000000 0.063105
vn -0.998007 0.000000 0.063104
vn -0.999502 0.000000 0.031568
vn -0.999502 0.000000 0.031568
vn -1.000000 0.000000 -0.000000
vn -1.000000 0.000000 -0.000000
vn 0.998007 0.000000 0.063104
vn 0.999114 0.000000 0.042088
vn 0.998007 0.000000 0.063104
vn 0.999779 0.000000 0.021044
vn 1.000000 0.000000 0.000000
vn 1.000000 0.000000 0.000000
vn 0.000000 0.000000 -1.000000
vn 0.000000 0.000000 -1.000000
vn -1.000000 0.000000 -0.000000
vn -1.000000 0.000000 -0.000000
vn -1.000000 0.000000 -0.000000
vn -1.000000 0.000000 -0.000000
vn -0.000000 0.000000 1.000000
vn -0.000000 0.000000 1.000000
vn -0.000000 0.000000 1.000000
vn -0.000000 0.000000 1.000000
vn 1.000000 0.000000 0.000000
vn 1.000000 0.000000 0.000000
vn 1.000000 0.000000 0.000000
vn 1.000000 0.000000 0.000000
s 1
g swivel tank_geo
usemtl initialShadingGroup
f 2/1/1 7/2/2 1/3/3
f 1/3/3 7/2/2 6/5/4
f 7/2/2 2/1/1 8/4/5
f 2/1/1 3/7/6 8/4/5
f 9/13/7 8/4/5 4/10/8
f 8/4/5 3/7/6 4/10/8
f 4/10/8 5/16/9 9/13/7
f 9/13/7 5/16/9 10/20/10
f 6/41/4 7/42/2 11/43/11
f 11/43/11 7/42/2 12/44/12
f 12/44/12 7/42/2 13/46/13
f 7/42/2 8/49/5 13/46/13
f 13/46/13 8/49/5 14/51/14
f 8/49/5 9/53/7 14/51/14
f 9/53/7 10/55/10 14/51/14
f 14/51/14 10/55/10 15/57/15
f 11/43/11 12/44/12 16/47/16
f 16/47/16 12/44/12 17/50/17
f 12/44/12 13/46/13 17/50/17
f 17/50/17 13/46/13 18/52/18
f 14/51/14 19/54/19 13/46/13
f 18/52/18 13/46/13 19/54/19
f 15/57/15 20/56/20 14/51/14
f 14/51/14 20/56/20 19/54/19
s 3
f 17/60/21 22/61/22 16/62/23
f 16/62/23 22/61/22 21/64/24
f 22/61/22 17/60/21 23/63/25
f 17/60/21 18/65/26 23/63/25
f 23/63/25 18/65/26 24/69/27
f 18/65/26 19/72/28 24/69/27
f 19/72/28 20/78/29 24/69/27
f 24/69/27 20/78/29 25/79/30
f 31/75/31 30/76/32 27/66/33
f 30/76/32 26/67/34 27/66/33
f 27/66/33 26/67/34 22/61/22
f 26/67/34 21/64/24 22/61/22
f 31/75/31 27/66/33 32/70/35
f 22/61/22 23/63/25 27/66/33
f 27/66/33 23/63/25 32/70/35
f 32/70/35 23/63/25 33/74/36
f 33/74/36 23/63/25 28/73/37
f 23/63/25 24/69/27 28/73/37
f 34/88/38 33/74/36 29/83/39
f 33/74/36 28/73/37 29/83/39
f 29/83/39 28/73/37 25/79/30
f 28/73/37 24/69/27 25/79/30
f 30/76/32 31/75/31 35/85/40
f 35/85/40 31/75/31 36/86/41
f 36/86/41 31/75/31 37/81/42
f 31/75/31 32/70/35 37/81/42
f 37/81/42 32/70/35 38/80/43
f 32/70/35 33/74/36 38/80/43
f 34/88/38 39/84/44 33/74/36
f 33/74/36 39/84/44 38/80/43
s 6
f 36/86/45 41/96/46 35/85/47
f 35/85/47 41/96/46 40/91/48
f 41/96/46 36/86/45 42/90/49
f 36/86/45 37/81/50 42/90/49
f 43/89/51 42/90/49 38/80/52
f 42/90/49 37/81/50 38/80/52
f 38/80/52 39/84/53 43/89/51
f 43/89/51 39/84/53 44/95/54
f 40/97/48 41/98/46 45/99/55
f 45/99/55 41/98/46 46/100/56
f 46/100/56 41/98/46 47/102/57
f 41/98/46 42/104/49 47/102/57
f 47/102/57 42/104/49 48/105/58
f 42/104/49 43/106/51 48/105/58
f 43/106/51 44/107/54 48/105/58
f 48/105/58 44/107/54 49/108/59
f 45/32/55 46/33/56 50/26/60
f 50/26/60 46/33/56 51/27/61
f 46/33/56 47/34/57 51/27/61
f 51/27/61 47/34/57 52/30/62
f 48/39/58 53/35/63 47/34/57
f 52/30/62 47/34/57 53/35/63
f 49/40/59 54/36/64 48/39/58
f 48/39/58 54/36/64 53/35/63
s 8
f 51/27/65 56/18/66 50/26/67
f 50/26/67 56/18/66 55/22/68
f 56/18/66 51/27/65 57/19/69
f 51/27/65 52/30/70 57/19/69
f 57/19/69 52/30/70 58/28/71
f 52/30/70 53/35/72 58/28/71
f 53/35/72 54/36/73 58/28/71
f 58/28/71 54/36/73 59/31/74
f 65/6/75 64/9/76 61/11/77
f 64/9/76 60/14/78 61/11/77
f 61/11/77 60/14/78 56/18/66
f 60/14/78 55/22/68 56/18/66
f 65/6/75 61/11/77 66/12/79
f 56/18/66 57/19/69 61/11/77
f 61/11/77 57/19/69 66/12/79
f 66/12/79 57/19/69 67/15/80
f 67/15/80 57/19/69 62/23/81
f 57/19/69 58/28/71 62/23/81
f 68/24/82 67/15/80 63/29/83
f 67/15/80 62/23/81 63/29/83
f 63/29/83 62/23/81 59/31/74
f 62/23/81 58/28/71 59/31/74
f 64/9/76 65/6/75 1/3/84
f 1/3/84 65/6/75 2/1/85
f 2/1/85 65/6/75 3/7/86
f 65/6/75 66/12/79 3/7/86
f 3/7/86 66/12/79 4/10/87
f 66/12/79 67/15/80 4/10/87
f 68/24/82 5/16/88 67/15/80
f 67/15/80 5/16/88 4/10/87
s 11
f 59/31/89 54/36/90 69/37/91
f 69/37/91 54/36/90 49/40/92
f 68/24/93 63/29/94 71/25/95
f 71/25/95 63/29/94 70/38/96
f 70/38/96 63/29/94 69/37/91
f 63/29/94 59/31/89 69/37/91
f 68/24/93 71/25/95 5/16/97
f 5/16/97 71/25/95 10/20/98
f 69/110/91 49/108/92 72/109/99
f 72/109/99 49/108/92 44/107/100
f 74/111/101 71/112/95 73/113/102
f 71/112/95 70/114/96 73/113/102
f 73/113/102 70/114/96 72/115/99
f 70/114/96 69/116/91 72/115/99
f 10/55/98 71/58/95 15/57/103
f 15/57/103 71/58/95 74/59/101
f 44/95/100 39/84/104 72/94/99
f 72/94/99 39/84/104 34/88/105
f 25/79/106 74/87/101 29/83/107
f 74/87/101 73/93/102 29/83/107
f 73/93/102 72/94/99 29/83/107
f 29/83/107 72/94/99 34/88/105
f 15/92/103 74/87/101 20/78/108
f 20/78/108 74/87/101 25/79/106
s 15
f 55/22/109 75/21/110 50/26/111
f 50/26/111 75/21/110 45/32/112
f 55/22/109 60/14/113 75/21/110
f 75/21/110 60/14/113 76/17/114
f 76/17/114 60/14/113 77/8/115
f 60/14/113 64/9/116 77/8/115
f 64/9/116 1/3/117 77/8/115
f 77/8/115 1/3/117 6/5/118
f 45/99/112 75/101/110 40/97/119
f 40/97/119 75/101/110 78/103/120
f 78/117/120 75/118/110 79/119/121
f 75/118/110 76/120/114 79/119/121
f 79/119/121 76/120/114 80/121/122
f 76/120/114 77/122/115 80/121/122
f 77/48/115 6/41/118 80/45/122
f 80/45/122 6/41/118 11/43/123
f 40/91/119 78/82/120 35/85/124
f 35/85/124 78/82/120 30/76/125
f 30/76/125 78/82/120 26/67/126
f 78/82/120 79/77/121 26/67/126
f 79/77/121 80/68/122 26/67/126
f 26/67/126 80/68/122 21/64/127
f 11/71/123 16/62/128 80/68/122
f 80/68/122 16/62/128 21/64/127
s off
f 81/123/129 83/124/130 82/125/131
f 81/126/132 82/127/133 84/128/134
f 82/129/135 83/130/136 84/131/137
f 83/132/138 81/133/139 84/134/140
s 16
f 85/135/141 86/136/142 89/137/143
f 89/137/143 86/136/142 90/138/144
f 86/136/142 87/139/145 90/138/144
f 90/138/144 87/139/145 91/140/146
f 87/139/145 88/141/147 91/140/146
f 91/140/146 88/141/147 92/143/148
s 17
f 89/145/149 90/146/150 93/147/151
f 93/147/151 90/146/150 94/148/152
s 18
f 109/157/153 110/158/154 112/159/155
f 112/159/155 110/158/154 111/160/156
s 17
f 91/156/157 92/155/158 95/151/159
f 95/151/159 92/155/158 96/154/160
f 93/147/151 94/148/152 97/149/161
f 97/149/161 94/148/152 98/150/162
f 94/148/152 95/151/159 98/150/162
f 98/150/162 95/151/159 99/152/163
f 96/154/160 100/153/164 95/151/159
f 95/151/159 100/153/164 99/152/163
s 20
f 97/161/165 98/162/166 101/163/167
f 101/163/167 98/162/166 102/164/168
f 98/162/166 99/165/169 102/164/168
f 102/164/168 99/165/169 103/166/170
f 99/165/169 100/167/171 103/166/170
f 103/166/170 100/167/171 104/168/172
s 21
f 102/169/173 106/170/174 101/171/175
f 101/171/175 106/170/174 105/173/176
f 102/169/173 103/172/177 106/170/174
f 106/170/174 103/172/177 107/174/178
f 103/172/177 104/176/179 107/174/178
f 107/174/178 104/176/179 108/178/180
f 105/173/176 106/170/174 85/175/181
f 85/175/181 106/170/174 86/177/182
f 106/170/174 107/174/178 86/177/182
f 86/177/182 107/174/178 87/179/183
f 107/174/178 108/178/180 87/179/183
f 87/179/183 108/178/180 88/180/184
s 22
f 104/181/185 100/182/186 108/183/187
f 108/183/187 100/182/186 96/184/188
f 88/186/189 108/183/187 92/185/190
f 92/185/190 108/183/187 96/184/188
s 23
f 101/187/191 105/188/192 97/189/193
f 97/189/193 105/188/192 93/190/194
f 105/188/192 85/191/195 93/190/194
f 93/190/194 85/191/195 89/192/196
s 16
f 90/138/144 91/140/146 109/142/197
f 109/142/197 91/140/146 110/144/198
s 24
f 91/193/199 95/194/200 110/195/201
f 110/195/201 95/194/200 111/196/202
s 25
f 95/197/203 94/198/204 111/199/205
f 111/199/205 94/198/204 112/200/206
s 26
f 94/201/207 90/202/208 112/203/209
f 112/203/209 90/202/208 109/204/210
